<svg width="188" height="80" viewBox="0 0 188 80" fill="none" xmlns="http://www.w3.org/2000/svg">
<path fill-rule="evenodd" clip-rule="evenodd" d="M79.1089 48.4356C79.6927 45.7161 80 42.8939 80 40C80 17.9086 62.0914 0 40 0C17.9086 0 0 17.9086 0 40C0 62.0914 17.9086 80 40 80C58.6384 80 74.2994 67.2523 78.7398 50H79.6367L79.1089 48.4356ZM73.5034 43.7031L71.7227 38.0312H71.5977L69.8206 43.7031H73.5034ZM74.4257 46.6406L75.4805 50H78.7398C78.873 49.4825 78.9961 48.961 79.1089 48.4356L74.2383 34H69.0898L63.6914 50H67.8477L68.9002 46.6406H74.4257ZM35.2109 34V50H42.3906C43.5729 50 44.5781 49.8073 45.4062 49.4219C46.2344 49.0312 46.8672 48.5 47.3047 47.8281C47.7422 47.151 47.9609 46.3828 47.9609 45.5234C47.9609 44.7526 47.7943 44.0859 47.4609 43.5234C47.1276 42.9557 46.6849 42.513 46.1328 42.1953C45.5859 41.8776 44.9896 41.7031 44.3438 41.6719V41.5156C44.9323 41.3906 45.4505 41.1719 45.8984 40.8594C46.3464 40.5469 46.6979 40.1536 46.9531 39.6797C47.2083 39.2005 47.3359 38.6562 47.3359 38.0469C47.3359 37.2448 47.1302 36.5391 46.7188 35.9297C46.3125 35.3203 45.7031 34.8464 44.8906 34.5078C44.0833 34.1693 43.0807 34 41.8828 34H35.2109ZM41.4688 46.8828H39.0781V43.0703H41.5391C42.0339 43.0703 42.4583 43.1536 42.8125 43.3203C43.1667 43.4818 43.4401 43.7135 43.6328 44.0156C43.8255 44.3125 43.9219 44.6667 43.9219 45.0781C43.9219 45.6458 43.7214 46.0885 43.3203 46.4062C42.9245 46.724 42.3073 46.8828 41.4688 46.8828ZM41.2188 40.5781H39.0781V37.0703H41.2812C41.9271 37.0703 42.4401 37.224 42.8203 37.5312C43.2005 37.8385 43.3906 38.2604 43.3906 38.7969C43.3906 39.1719 43.2969 39.4922 43.1094 39.7578C42.9271 40.0234 42.6719 40.2266 42.3438 40.3672C42.0156 40.5078 41.6406 40.5781 41.2188 40.5781ZM49.8203 34V50H53.6875V44.5234H55.6682L58.5938 50H62.8125L59.4959 43.913C60.3771 43.5071 61.0582 42.9215 61.5391 42.1562C62.0234 41.3802 62.2656 40.4375 62.2656 39.3281C62.2656 38.2344 62.0286 37.2891 61.5547 36.4922C61.0807 35.6901 60.4062 35.0755 59.5312 34.6484C58.6615 34.2161 57.6276 34 56.4297 34H49.8203ZM55.5938 41.4766H53.6875V37.1172H55.5938C56.1719 37.1172 56.6589 37.2005 57.0547 37.3672C57.4505 37.5286 57.75 37.7734 57.9531 38.1016C58.1562 38.4245 58.2578 38.8333 58.2578 39.3281C58.2578 39.8229 58.1562 40.2292 57.9531 40.5469C57.75 40.8594 57.4505 41.0938 57.0547 41.25C56.6641 41.401 56.1771 41.4766 55.5938 41.4766ZM94.9766 50V34H91.1172V43.2188H90.9844L84.6875 34H81.3594V50H85.2266V40.7656H85.3281L91.6953 50H94.9766ZM97.4082 50H103.322C104.947 50 106.351 49.6823 107.533 49.0469C108.715 48.4062 109.624 47.487 110.26 46.2891C110.9 45.0911 111.221 43.6589 111.221 41.9922C111.221 40.3307 110.9 38.9036 110.26 37.7109C109.619 36.513 108.708 35.5964 107.525 34.9609C106.348 34.3203 104.945 34 103.314 34H97.4082V50ZM103.174 46.7031H101.275V37.2969H103.119C104.036 37.2969 104.807 37.4505 105.432 37.7578C106.062 38.0599 106.538 38.5547 106.861 39.2422C107.184 39.9245 107.346 40.8411 107.346 41.9922C107.346 43.1432 107.184 44.0651 106.861 44.7578C106.544 45.4453 106.072 45.9427 105.447 46.25C104.827 46.5521 104.07 46.7031 103.174 46.7031ZM122.059 52.7969V50H111.379V52.7969H122.059ZM136.871 50V34H133.012V43.2188H132.879L126.582 34H123.254V50H127.121V40.7656H127.223L133.59 50H136.871ZM138.607 50H142.764L143.816 46.6406H149.342L150.396 50H154.553L149.154 34H144.006L138.607 50ZM148.419 43.7031L146.639 38.0312H146.514L144.737 43.7031H148.419ZM161.064 34H156.275V50H160.041V40.1172H160.174L164.018 49.8984H166.424L170.268 40.1719H170.4V50H174.166V34H169.377L165.314 43.9062H165.127L161.064 34ZM176.578 34V50H187.734V46.8594H180.445V43.5703H187.164V40.4219H180.445V37.1406H187.734V34H176.578Z" fill="#d2691e"/>
</svg>
